<svg width="860" height="780" viewBox="0 0 860 780" xmlns="http://www.w3.org/2000/svg">
  <defs>
    <filter id="glow"><feGaussianBlur stdDeviation="2.5" result="b"/><feMerge><feMergeNode in="b"/><feMergeNode in="SourceGraphic"/></feMerge></filter>
    <linearGradient id="g-js" x1="0%" y1="0%" x2="100%" y2="0%"><stop offset="0%" stop-color="#F7DF1E"/><stop offset="100%" stop-color="#f0a500"/></linearGradient>
    <linearGradient id="g-ts" x1="0%" y1="0%" x2="100%" y2="0%"><stop offset="0%" stop-color="#3178C6"/><stop offset="100%" stop-color="#60a5fa"/></linearGradient>
    <linearGradient id="g-html" x1="0%" y1="0%" x2="100%" y2="0%"><stop offset="0%" stop-color="#E34F26"/><stop offset="100%" stop-color="#f97316"/></linearGradient>
    <linearGradient id="g-python" x1="0%" y1="0%" x2="100%" y2="0%"><stop offset="0%" stop-color="#3776AB"/><stop offset="100%" stop-color="#FFD43B"/></linearGradient>
    <linearGradient id="g-java" x1="0%" y1="0%" x2="100%" y2="0%"><stop offset="0%" stop-color="#f89820"/><stop offset="100%" stop-color="#ea580c"/></linearGradient>
    <linearGradient id="g-cpp" x1="0%" y1="0%" x2="100%" y2="0%"><stop offset="0%" stop-color="#00599C"/><stop offset="100%" stop-color="#0ea5e9"/></linearGradient>
    <linearGradient id="g-bash" x1="0%" y1="0%" x2="100%" y2="0%"><stop offset="0%" stop-color="#4EAA25"/><stop offset="100%" stop-color="#86efac"/></linearGradient>
    <linearGradient id="g-node" x1="0%" y1="0%" x2="100%" y2="0%"><stop offset="0%" stop-color="#339933"/><stop offset="100%" stop-color="#86efac"/></linearGradient>
    <linearGradient id="g-next" x1="0%" y1="0%" x2="100%" y2="0%"><stop offset="0%" stop-color="#aaaaaa"/><stop offset="100%" stop-color="#ffffff"/></linearGradient>
    <linearGradient id="g-react" x1="0%" y1="0%" x2="100%" y2="0%"><stop offset="0%" stop-color="#61DAFB"/><stop offset="100%" stop-color="#00b4d8"/></linearGradient>
    <linearGradient id="g-electron" x1="0%" y1="0%" x2="100%" y2="0%"><stop offset="0%" stop-color="#47848F"/><stop offset="100%" stop-color="#67e8f9"/></linearGradient>
    <linearGradient id="g-godot" x1="0%" y1="0%" x2="100%" y2="0%"><stop offset="0%" stop-color="#478CBF"/><stop offset="100%" stop-color="#7dd3fc"/></linearGradient>
  </defs>

  <!-- BG -->
  <rect width="860" height="780" rx="14" fill="#0d1117"/>
  <rect x="1" y="1" width="858" height="778" rx="13" fill="none" stroke="#00d4ff" stroke-width="0.4" opacity="0.25"/>

  <!-- Header -->
  <rect x="20" y="18" width="820" height="42" rx="7" fill="#161b22"/>
  <text x="430" y="45" text-anchor="middle" font-family="monospace" font-size="12" fill="#00d4ff" font-weight="700" letter-spacing="3">SKILLS &amp; PROFICIENCY</text>

  <!-- Scan line -->
  <rect x="20" y="20" width="820" height="2" rx="1" fill="#00d4ff" opacity="0.5">
    <animate attributeName="y" values="20;738;20" dur="5s" repeatCount="indefinite"/>
    <animate attributeName="opacity" values="0.5;0;0.5" dur="5s" repeatCount="indefinite"/>
  </rect>

  <!-- Pulse -->
  <circle cx="820" cy="39" r="4" fill="#00ff88"><animate attributeName="opacity" values="1;0.2;1" dur="2s" repeatCount="indefinite"/></circle>
  <circle cx="820" cy="39" r="9" fill="none" stroke="#00ff88" stroke-width="1" opacity="0.3"><animate attributeName="r" values="4;14;4" dur="2s" repeatCount="indefinite"/><animate attributeName="opacity" values="0.3;0;0.3" dur="2s" repeatCount="indefinite"/></circle>

  <!-- Layout: label 20-180, bar 185-770, pct 775-840 -->

  <!-- LANGUAGES -->
  <text x="30" y="88" font-family="monospace" font-size="10" fill="#7b8ab8" font-weight="600" letter-spacing="2">LANGUAGES</text>
  <line x1="150" y1="82" x2="840" y2="82" stroke="#00d4ff" stroke-width="0.3" opacity="0.2"/>

  <!-- JS 100% bar width = 585 -->
  <text x="30" y="113" font-family="monospace" font-size="12" fill="#c9d1d9" font-weight="600">JavaScript</text>
  <rect x="185" y="103" width="585" height="10" rx="5" fill="#161b22"/>
  <rect x="185" y="103" width="0" height="10" rx="5" fill="url(#g-js)" filter="url(#glow)"><animate attributeName="width" from="0" to="585" dur="1s" begin="0.1s" fill="freeze" calcMode="spline" keySplines="0.4 0 0.2 1"/></rect>
  <text x="778" y="113" font-family="monospace" font-size="11" fill="#7b8ab8" text-anchor="start">100%</text>

  <!-- TS 95% = 556 -->
  <text x="30" y="140" font-family="monospace" font-size="12" fill="#c9d1d9" font-weight="600">TypeScript</text>
  <rect x="185" y="130" width="585" height="10" rx="5" fill="#161b22"/>
  <rect x="185" y="130" width="0" height="10" rx="5" fill="url(#g-ts)" filter="url(#glow)"><animate attributeName="width" from="0" to="556" dur="1s" begin="0.2s" fill="freeze" calcMode="spline" keySplines="0.4 0 0.2 1"/></rect>
  <text x="778" y="140" font-family="monospace" font-size="11" fill="#7b8ab8" text-anchor="start">95%</text>

  <!-- HTML 100% = 585 -->
  <text x="30" y="167" font-family="monospace" font-size="12" fill="#c9d1d9" font-weight="600">HTML / CSS</text>
  <rect x="185" y="157" width="585" height="10" rx="5" fill="#161b22"/>
  <rect x="185" y="157" width="0" height="10" rx="5" fill="url(#g-html)" filter="url(#glow)"><animate attributeName="width" from="0" to="585" dur="1s" begin="0.3s" fill="freeze" calcMode="spline" keySplines="0.4 0 0.2 1"/></rect>
  <text x="778" y="167" font-family="monospace" font-size="11" fill="#7b8ab8" text-anchor="start">100%</text>

  <!-- Python 70% = 410 -->
  <text x="30" y="194" font-family="monospace" font-size="12" fill="#c9d1d9" font-weight="600">Python</text>
  <rect x="185" y="184" width="585" height="10" rx="5" fill="#161b22"/>
  <rect x="185" y="184" width="0" height="10" rx="5" fill="url(#g-python)" filter="url(#glow)"><animate attributeName="width" from="0" to="410" dur="1s" begin="0.4s" fill="freeze" calcMode="spline" keySplines="0.4 0 0.2 1"/></rect>
  <text x="778" y="194" font-family="monospace" font-size="11" fill="#7b8ab8" text-anchor="start">70%</text>

  <!-- Java 85% = 497 -->
  <text x="30" y="221" font-family="monospace" font-size="12" fill="#c9d1d9" font-weight="600">Java</text>
  <rect x="185" y="211" width="585" height="10" rx="5" fill="#161b22"/>
  <rect x="185" y="211" width="0" height="10" rx="5" fill="url(#g-java)" filter="url(#glow)"><animate attributeName="width" from="0" to="497" dur="1s" begin="0.5s" fill="freeze" calcMode="spline" keySplines="0.4 0 0.2 1"/></rect>
  <text x="778" y="221" font-family="monospace" font-size="11" fill="#7b8ab8" text-anchor="start">85%</text>

  <!-- C++ 10% = 59 -->
  <text x="30" y="248" font-family="monospace" font-size="12" fill="#c9d1d9" font-weight="600">C++</text>
  <rect x="185" y="238" width="585" height="10" rx="5" fill="#161b22"/>
  <rect x="185" y="238" width="0" height="10" rx="5" fill="url(#g-cpp)" filter="url(#glow)"><animate attributeName="width" from="0" to="59" dur="1s" begin="0.6s" fill="freeze" calcMode="spline" keySplines="0.4 0 0.2 1"/></rect>
  <text x="778" y="248" font-family="monospace" font-size="11" fill="#7b8ab8" text-anchor="start">10%</text>

  <!-- Bash 75% = 439 -->
  <text x="30" y="275" font-family="monospace" font-size="12" fill="#c9d1d9" font-weight="600">Bash / PowerShell</text>
  <rect x="185" y="265" width="585" height="10" rx="5" fill="#161b22"/>
  <rect x="185" y="265" width="0" height="10" rx="5" fill="url(#g-bash)" filter="url(#glow)"><animate attributeName="width" from="0" to="439" dur="1s" begin="0.7s" fill="freeze" calcMode="spline" keySplines="0.4 0 0.2 1"/></rect>
  <text x="778" y="275" font-family="monospace" font-size="11" fill="#7b8ab8" text-anchor="start">75%</text>

  <!-- FRAMEWORKS -->
  <text x="30" y="315" font-family="monospace" font-size="10" fill="#7b8ab8" font-weight="600" letter-spacing="2">FRAMEWORKS &amp; RUNTIMES</text>
  <line x1="255" y1="309" x2="840" y2="309" stroke="#00d4ff" stroke-width="0.3" opacity="0.2"/>

  <!-- Node 100% -->
  <text x="30" y="340" font-family="monospace" font-size="12" fill="#c9d1d9" font-weight="600">Node.js</text>
  <rect x="185" y="330" width="585" height="10" rx="5" fill="#161b22"/>
  <rect x="185" y="330" width="0" height="10" rx="5" fill="url(#g-node)" filter="url(#glow)"><animate attributeName="width" from="0" to="585" dur="1s" begin="0.8s" fill="freeze" calcMode="spline" keySplines="0.4 0 0.2 1"/></rect>
  <text x="778" y="340" font-family="monospace" font-size="11" fill="#7b8ab8" text-anchor="start">100%</text>

  <!-- Next 100% -->
  <text x="30" y="367" font-family="monospace" font-size="12" fill="#c9d1d9" font-weight="600">Next.js</text>
  <rect x="185" y="357" width="585" height="10" rx="5" fill="#161b22"/>
  <rect x="185" y="357" width="0" height="10" rx="5" fill="url(#g-next)" filter="url(#glow)"><animate attributeName="width" from="0" to="585" dur="1s" begin="0.9s" fill="freeze" calcMode="spline" keySplines="0.4 0 0.2 1"/></rect>
  <text x="778" y="367" font-family="monospace" font-size="11" fill="#7b8ab8" text-anchor="start">100%</text>

  <!-- React 95% -->
  <text x="30" y="394" font-family="monospace" font-size="12" fill="#c9d1d9" font-weight="600">React</text>
  <rect x="185" y="384" width="585" height="10" rx="5" fill="#161b22"/>
  <rect x="185" y="384" width="0" height="10" rx="5" fill="url(#g-react)" filter="url(#glow)"><animate attributeName="width" from="0" to="556" dur="1s" begin="1.0s" fill="freeze" calcMode="spline" keySplines="0.4 0 0.2 1"/></rect>
  <text x="778" y="394" font-family="monospace" font-size="11" fill="#7b8ab8" text-anchor="start">95%</text>

  <!-- Electron 35% -->
  <text x="30" y="421" font-family="monospace" font-size="12" fill="#c9d1d9" font-weight="600">Electron</text>
  <rect x="185" y="411" width="585" height="10" rx="5" fill="#161b22"/>
  <rect x="185" y="411" width="0" height="10" rx="5" fill="url(#g-electron)" filter="url(#glow)"><animate attributeName="width" from="0" to="205" dur="1s" begin="1.1s" fill="freeze" calcMode="spline" keySplines="0.4 0 0.2 1"/></rect>
  <text x="778" y="421" font-family="monospace" font-size="11" fill="#7b8ab8" text-anchor="start">35%</text>

  <!-- Godot 90% -->
  <text x="30" y="448" font-family="monospace" font-size="12" fill="#c9d1d9" font-weight="600">Godot / GDScript</text>
  <rect x="185" y="438" width="585" height="10" rx="5" fill="#161b22"/>
  <rect x="185" y="438" width="0" height="10" rx="5" fill="url(#g-godot)" filter="url(#glow)"><animate attributeName="width" from="0" to="527" dur="1s" begin="1.2s" fill="freeze" calcMode="spline" keySplines="0.4 0 0.2 1"/></rect>
  <text x="778" y="448" font-family="monospace" font-size="11" fill="#7b8ab8" text-anchor="start">90%</text>

  <!-- DOMAINS -->
  <text x="30" y="488" font-family="monospace" font-size="10" fill="#7b8ab8" font-weight="600" letter-spacing="2">DOMAINS</text>
  <line x1="120" y1="482" x2="840" y2="482" stroke="#00d4ff" stroke-width="0.3" opacity="0.2"/>

  <!-- Row 1 -->
  <rect x="30"  y="498" width="115" height="28" rx="5" fill="#161b22" stroke="#00d4ff"  stroke-width="0.5"/><text x="88"  y="517" text-anchor="middle" font-family="monospace" font-size="10" fill="#00d4ff">Web Dev</text>
  <rect x="155" y="498" width="115" height="28" rx="5" fill="#161b22" stroke="#61DAFB" stroke-width="0.5"/><text x="213" y="517" text-anchor="middle" font-family="monospace" font-size="10" fill="#61DAFB">Mobile</text>
  <rect x="280" y="498" width="115" height="28" rx="5" fill="#161b22" stroke="#47848F" stroke-width="0.5"/><text x="338" y="517" text-anchor="middle" font-family="monospace" font-size="10" fill="#47848F">Desktop</text>
  <rect x="405" y="498" width="115" height="28" rx="5" fill="#161b22" stroke="#478CBF" stroke-width="0.5"/><text x="463" y="517" text-anchor="middle" font-family="monospace" font-size="10" fill="#478CBF">Game Dev</text>
  <rect x="530" y="498" width="115" height="28" rx="5" fill="#161b22" stroke="#ff4444" stroke-width="0.5"/><text x="588" y="517" text-anchor="middle" font-family="monospace" font-size="10" fill="#ff4444">CyberSec</text>
  <rect x="655" y="498" width="175" height="28" rx="5" fill="#161b22" stroke="#2CA5E0" stroke-width="0.5"/><text x="743" y="517" text-anchor="middle" font-family="monospace" font-size="10" fill="#2CA5E0">Telegram Bots</text>

  <!-- Row 2 -->
  <rect x="30"  y="536" width="130" height="28" rx="5" fill="#161b22" stroke="#00ff88" stroke-width="0.5"/><text x="95"  y="555" text-anchor="middle" font-family="monospace" font-size="10" fill="#00ff88">Automation</text>
  <rect x="170" y="536" width="110" height="28" rx="5" fill="#161b22" stroke="#f59e0b" stroke-width="0.5"/><text x="225" y="555" text-anchor="middle" font-family="monospace" font-size="10" fill="#f59e0b">Parsing</text>
  <rect x="290" y="536" width="110" height="28" rx="5" fill="#161b22" stroke="#a855f7" stroke-width="0.5"/><text x="345" y="555" text-anchor="middle" font-family="monospace" font-size="10" fill="#a855f7">AI Tools</text>
  <rect x="410" y="536" width="110" height="28" rx="5" fill="#161b22" stroke="#f89820" stroke-width="0.5"/><text x="465" y="555" text-anchor="middle" font-family="monospace" font-size="10" fill="#f89820">Freelance</text>

  <!-- TOOLS -->
  <text x="30" y="595" font-family="monospace" font-size="10" fill="#7b8ab8" font-weight="600" letter-spacing="2">TOOLS &amp; ENVIRONMENT</text>
  <line x1="230" y1="589" x2="840" y2="589" stroke="#00d4ff" stroke-width="0.3" opacity="0.2"/>

  <text x="30" y="618" font-family="monospace" font-size="11" fill="#7b8ab8">VS Code  ·  WebStorm  ·  IntelliJ IDEA  ·  PyCharm  ·  CLion  ·  Rider  ·  Android Studio</text>
  <text x="30" y="644" font-family="monospace" font-size="11" fill="#7b8ab8">Git  ·  Docker  ·  FFmpeg  ·  Playwright  ·  Axios  ·  Cheerio  ·  Socket.io  ·  Prisma  ·  Tailwind</text>
  <text x="30" y="670" font-family="monospace" font-size="11" fill="#7b8ab8">Burp Suite  ·  OWASP ZAP  ·  Wireshark  ·  Kali Linux  ·  MongoDB  ·  PostgreSQL  ·  Redis</text>

  <!-- Bottom -->
  <line x1="20" y1="700" x2="840" y2="700" stroke="#00d4ff" stroke-width="0.3" opacity="0.15"/>
  <text x="430" y="725" text-anchor="middle" font-family="monospace" font-size="10" fill="#3d4a6b">Self-taught · 8+ years · Almaty, Kazakhstan</text>

  <!-- Corners -->
  <polyline points="20,78 20,20 78,20" fill="none" stroke="#00d4ff" stroke-width="1" opacity="0.4"/>
  <polyline points="782,20 840,20 840,78" fill="none" stroke="#00d4ff" stroke-width="1" opacity="0.4"/>
  <polyline points="20,702 20,758 78,758" fill="none" stroke="#00d4ff" stroke-width="1" opacity="0.4"/>
  <polyline points="782,758 840,758 840,702" fill="none" stroke="#00d4ff" stroke-width="1" opacity="0.4"/>
</svg>
